# xmcd
#
# Track frame offsets:
#	150
#	18501
#	31066
#	38678
#	48086
#	59174
#	66379
#	79573
#	89700
#	100466
#	114724
#	118927
#	128017
#	134453
#	153419
#	161829
#	175434
#	184847
#
# Disc length: 2671 seconds
#
# Revision: 0
# Processed by: cddbd v1.5.1PL0 Copyright (c) Steve Scherf et al.
# Submitted via: EasyCDDAExtractor 5.0.5.1
#
DISCID=020a6d12
DTITLE=Sirkut Toivakasta - Lapinlasten Lauluja
DYEAR=1988
DGENRE=Kuoro
TTITLE0=Auringon kosketus
TTITLE1=Marjatan laulu
TTITLE2=Sinen taivas
TTITLE3=Kes‰n muistoja
TTITLE4=Kes‰aamu
TTITLE5=J‰‰hyv‰iset kes‰lle
TTITLE6=Sompion kehtolaulu
TTITLE7=Pelimannin iltalaulu
TTITLE8=Tuomitun kehtolaulu
TTITLE9=Tunturitiell‰
TTITLE10=Kev‰tlaulu
TTITLE11=Tule liekkien luo
TTITLE12=Kurjet
TTITLE13=Lapin sirkku
TTITLE14=Pilvinen tie
TTITLE15=Untenmaille
TTITLE16=Mustajoen Angelus
TTITLE17=Kylm‰n kukkia
EXTD=
EXTT0=
EXTT1=
EXTT2=
EXTT3=
EXTT4=
EXTT5=
EXTT6=
EXTT7=
EXTT8=
EXTT9=
EXTT10=
EXTT11=
EXTT12=
EXTT13=
EXTT14=
EXTT15=
EXTT16=
EXTT17=
PLAYORDER=
